<?xml version="1.0" encoding="utf-8"?>
<!-- Generator: Adobe Illustrator 21.1.0, SVG Export Plug-In . SVG Version: 6.00 Build 0)  -->
<svg version="1.1" id="Layer_1" xmlns="http://www.w3.org/2000/svg" xmlns:xlink="http://www.w3.org/1999/xlink" x="0px" y="0px"
	 viewBox="0 0 1080 1080" style="enable-background:new 0 0 1080 1080;" xml:space="preserve">
<style type="text/css">
	.st0{fill:#FAFAFA;stroke:#F9FAFA;stroke-width:2;stroke-miterlimit:10;}
</style>
<path class="st0" d="M403.9,341.9c-0.8,0-1.6,0-2.5,0c-86,0-171.9,0-257.9,0c-0.2,0-0.3,0-0.5,0c0-0.1,0-0.2,0-0.3
	c0.3-0.5,0.7-1,1-1.5c42.7-73.9,85.4-147.8,128.1-221.7c0.4-0.7,0.8-1.3,1.3-2.2c0.4,0.7,0.8,1.2,1.1,1.8
	C317.3,192,360.1,266,402.9,340.1c0.3,0.5,0.7,1,1,1.5C403.9,341.7,403.9,341.8,403.9,341.9z M273.4,122
	c-28.2,48.9-56.3,97.4-84.4,146.1c56.4,0,112.5,0,168.8,0C329.7,219.3,301.6,170.8,273.4,122z M398.6,338.8c-0.3-0.6-0.5-1-0.7-1.4
	c-12.5-21.7-25.1-43.4-37.6-65c-0.6-1-1.2-1.2-2.2-1.2c-27.4,0-54.7,0-82.1,0c-0.6,0-1.1,0.1-1.8,0.1c0,22.6,0,45,0,67.5
	C315.7,338.8,357,338.8,398.6,338.8z M271.1,338.9c0-22.6,0-45.1,0-67.7c-0.7,0-1.2,0-1.7,0c-26.9,0-53.7,0-80.6,0
	c-1.2,0-1.8,0.4-2.4,1.4c-12.4,21.6-24.9,43.1-37.3,64.6c-0.3,0.5-0.5,1-0.9,1.6C189.3,338.9,230.1,338.9,271.1,338.9z"/>
</svg>
